<?xml version="1.0" standalone="no"?>
<!DOCTYPE svg PUBLIC "-//W3C//DTD SVG 1.1//EN" "http://www.w3.org/Graphics/SVG/1.1/DTD/svg11.dtd" >
<svg xmlns="http://www.w3.org/2000/svg">
<metadata>
This is a custom SVG font generated by IcoMoon.
<iconset grid="16"></iconset>
</metadata>
<defs>
<font id="icomoon" horiz-adv-x="512" >
<font-face units-per-em="512" ascent="480" descent="-32" />
<missing-glyph horiz-adv-x="512" />
<glyph unicode="&#xe000;" d="M 1142.898,190.037c-27.164,20.309-47.104,33.621-16.327,58.567c 13.995,11.292, 41.5,23.808, 13.625,39.737
	C 1123.527,297.956, 1093.973,285.269, 1092.352,310.5c-0.711,11.719, 18.83,28.245-3.954,35.726c-1.308-1.451-2.304-3.072-3.328-4.75
	c-0.825,4.068, 0.626,24.007-3.413,32.37c-6.855,14.592-25.572,22.215-39.908,24.917c-18.176,3.356-24.661-4.124-37.518,14.564
	c-11.065,15.872-12.174,33.678-27.648,47.275c-27.335,24.036-28.615-2.162-49.465-6.542c-32.939-6.884-95.744,52.907-117.362,10.894
	c 6.912-9.273, 40.59-24.348, 37.86-39.851c-2.873-15.957-43.691-29.298-54.272-33.792c 17.436-11.776, 33.195-19.257, 53.362-25.23
	c 11.634-3.442, 34.617-3.129, 41.387-13.824c 8.277-13.141-2.276-28.672-12.203-43.833c-34.844-25.060-79.218-51.513-126.009-65.28
	c-14.023,19.456-26.766,29.895-26.766,29.895C 618.894,385.138, 19.598-18.46, 19.598-18.46c-55.95-40.135, 25.685-32.597, 25.685-32.597
	c 758.329,67.641, 738.958,161.308, 738.958,161.308c 4.665,37.604-2.332,69.404-12.942,94.663c 28.075,16.697, 66.105,35.669, 106.069,45.34
	c 0.711-8.192, 0.114-16.839, 0.171-24.519c 0.199-25.486-6.741-68.267, 30.436-69.575c 34.958-1.195, 22.215,39.367, 29.269,62.236
	c 30.094-6.884, 35.897-20.11, 56.007-41.387c 16.612-17.636, 39.908-29.042, 57.031-44.544c 8.078,12.288, 13.141,21.39, 15.104,34.076
	c 1.564,9.785-10.638,19.911, 5.717,24.32c 9.159,2.532, 29.895-15.218, 40.42-16.071C 1125.689,173.568, 1136.213,176.412, 1142.898,190.037" horiz-adv-x="1137.778" data-tags="vegetables" />
<glyph unicode="&#xe001;" d="M 166.881,279.886c 55.265,0, 100.073,44.808, 100.073,100.057c0,55.265-44.808,100.057-100.073,100.057S 66.839,435.208, 66.839,379.943
	C 66.839,324.693, 111.616,279.886, 166.881,279.886M 229.764,279.886l-61.688-88.064l-61.673,88.064c-1.598-0.465-3.181-0.946-4.763-1.443
	c-6.051-11.078-9.232-23.521-9.232-36.135c0-41.72, 33.947-75.667, 75.667-75.667s 75.667,33.947, 75.667,75.667c0,12.614-3.181,25.057-9.216,36.135
	C 232.944,278.939, 231.346,279.42, 229.764,279.886M 257.815,269.708c 2.731-8.844, 4.112-18.013, 4.112-27.4c0-48.268-36.29-88.188-83.642-93.277
	c 1.071-4.484, 3.212-9.945, 7.385-14.181c 5.027-5.136, 12.397-7.727, 21.923-7.727c 20.759,0, 34.397-10.892, 35.638-28.408
	c 0.9-12.35-5.849-28.455-18.385-35.375c-0.202-12.552-10.442-22.714-23.009-22.714c-12.691,0-23.040,10.333-23.040,23.040
	c0,12.691, 10.349,23.024, 23.040,23.024c 5.942,0, 11.605-2.312, 15.841-6.33c 4.282,3.398, 7.928,10.271, 7.463,17.067
	c-0.574,7.633-6.454,11.512-17.548,11.512c-14.6,0-26.376,4.453-34.971,13.25c-8.347,8.549-11.605,19.161-12.862,26.64
	c-48.314,4.22-85.535,44.451-85.535,93.463c0,9.387, 1.381,18.572, 4.096,27.415C 48.454,256.582, 21.582,236.924,0,212.302l0-217.833 
	c 9.387-10.721, 19.844-20.558, 31.108-29.324l 273.936,0 c 11.28,8.766, 21.721,18.603, 31.092,29.324l0,217.833 C 314.57,236.909, 287.697,256.582, 257.815,269.708" horiz-adv-x="325.818" data-tags="treatment" />
<glyph unicode="&#xe002;" d="M 285.386,233.945c0,0-50.548,131.227-84.092,181.543c-18.060,27.089-23.568,42.837-24.793,51.603
	C 180.767,475.237, 184.289,480, 184.289,480L 127.147,472.367c 37.314-41.658, 6.33-185.577-7.013-239.554C 27.524,217.297,0,180.232,0,114.96
	c0-74.504, 72.968-148.185, 147.472-148.185s 140.49,66.7, 140.49,141.188c0,74.519-26.562,141.203-140.49,128.621c-5.089-0.559-10.023-1.179-14.801-1.846
	c 8.301,49.85, 26.733,161.559, 29.603,187.268c 0.45,3.941, 1.102,7.742, 1.877,11.404c 34.475-43.349, 91.695-123.609, 110.918-199.54
	c-6.935-0.109-13.591-0.357-19.921-0.745c 37.95-25.957, 49.121-73.573, 49.121-124.509c0-55.467-32.861-107.039-79.438-135.121
	c 9.883-3.848, 20.108-6.454, 30.549-7.618c 74.023-8.285, 147.037,50.641, 155.307,124.68C 418.971,164.561, 399.981,233.79, 285.386,233.945" horiz-adv-x="403.394" data-tags="something extRA" />
<glyph unicode="&#xe003;" d="M 259.664,480C 116.256,480,0,363.744,0,220.352s 116.256-259.664, 259.664-259.664c 143.392,0, 259.648,116.288, 259.648,259.664
			S 403.056,480, 259.664,480z M 393.136,187.28l-100.4,0 l0-100.4 l-66.16,0 l0,100.4 L 126.16,187.28 l0,66.16 l 100.416,0 L 226.576,353.856 l 66.16,0 l0-100.416 l 100.4,0 L 393.136,187.28 z" data-tags="sign up" />
<glyph unicode="&#xe004;" d="M 514.336,4.496c0,0, 5.344-59.44-57.136-45.632l-153.936,151.856l 73.6,68.928L 514.336,4.496zM 376.864,268.976c0-91.568-74.224-165.824-165.808-165.824c-91.568,0-165.84,74.256-165.84,165.824
	c0,91.584, 74.288,165.824, 165.84,165.824C 302.64,434.8, 376.864,360.56, 376.864,268.976" data-tags="search" />
<glyph unicode="&#xe005;" d="M 766.433,389.966c-78.165-24.623-153.553-82.696-180.426-107.256c-29.293,27.741-69.12,51.774-113.757,70.718
	c 5.927,19.611, 26.919,28.703, 26.919,28.703C 448.031,462.468, 304.873,480, 304.873,480l-87.94-82.23C 89.057,385.047, 32.008,306.075, 1.893,203.179
	c-18.075-55.203, 96.023-169.332, 236.404-173.63c 31.837-24.064, 107.799-74.333, 171.753-60.866c0,0-46.856,21.752-60.975,71.664
	c 50.921,10.488, 101.454,28.082, 145.455,51.060c 18.261-6.904, 59.951-19.673, 87.661-4.841c0,0-30.068,4.484-41.782,32.023
	c-0.062,0.155-0.155,0.233-0.217,0.372c 17.098,11.916, 32.458,24.762, 45.49,38.416c 39.874-21.861, 137.961-84.232, 193.288-75.248
	C 746.124,136.82, 625.773,208.718, 766.433,389.966 M 133.927,192.194c-29.044,0-52.596,23.552-52.596,52.596s 23.552,52.596, 52.596,52.596s 52.596-23.552, 52.596-52.596
	S 162.971,192.194, 133.927,192.194" horiz-adv-x="775.758" data-tags="seafood" />
<glyph unicode="&#xe006;" d="M 484.399,255.123l-38.912,0 l-42.992-42.992c 59.64-16.756, 103.548-71.494, 103.548-136.394l0-20.945 l 78.522,0 L 584.564,154.958 
	C 584.549,210.285, 539.726,255.123, 484.399,255.123M 364.218,185.584l-42.667,0 l-82.37-82.354l-82.37,82.354L 109.847,185.584 c-60.664,0-109.847-49.183-109.847-109.878l0-109.847 l 474.065,0 l0,109.847 
	C 474.065,136.401, 424.882,185.584, 364.218,185.584M 368.423,480c-27.85,0-53.124-10.674-72.239-28.051c 53.341-22.993, 90.841-76.071, 90.841-137.775
	c0-17.129-3.025-33.544-8.363-48.873c 54.613,5.167, 97.358,51.107, 97.358,107.070C 476.036,431.81, 427.846,480, 368.423,480M 355.033,314.174c0-65.179-52.814-118.008-117.993-118.008S 119.001,248.995, 119.001,314.174c0,65.195, 52.845,118.008, 118.024,118.008
	S 355.033,379.384, 355.033,314.174" horiz-adv-x="574.061" data-tags="relationships&support" />
<glyph unicode="&#xe007;" d="M 191.904,480L 191.904,192.112L 119.408,240.112L 51.184,192.112L 51.184,480L0,480L0-46.72L 449.936-46.72L 449.936,480 		
			z" horiz-adv-x="448" data-tags="RA 101" />
<glyph unicode="&#xe008;" d="M 450.256,254.608C 499.344,318.304, 477.296,352, 455.104,368l 19.824,47.6c 1.424-0.272, 2.88-0.448, 4.4-0.448
	c 13.968,0, 25.296,11.328, 25.296,25.312c0,13.776-11.024,24.96-24.736,25.264C 475.76,474.128, 467.216,480, 457.216,480c-14,0-25.312-11.328-25.312-25.312
	c0-7.728, 3.536-14.592, 9.008-19.232L 410.88,379.952c-88.64-4.080-133.984-40.88-157.088-80.704C 127.936,274.4,0,163.6,0,71.872
	c0-104, 169.12-115.504, 308.464-115.504c 139.376,0, 246.8,13.088, 246.8,117.072C 555.264,136.544, 513.92,208.064, 450.256,254.608" horiz-adv-x="544" data-tags="poultry" />
<glyph unicode="&#xe009;" d="M 23.102,355.506c-10.395,1.722-21.147-8.285-22.792-18.928c-2.917-18.618, 15.205-23.35, 21.907-36.631
	c 11.295-22.404-13.607-23.552-20.34-40.774c-10.085-25.771, 27.058-26.593, 34.242-41.86c 6.951-14.817-17.951-19.316-24.84-32.566
	c-14.708-28.346, 15.934-17.377, 24.623-33.544c 9.061-16.818-16.958-28.905-17.858-46.096c-1.086-20.527, 29.122-18.897, 43.861-13.545
	c 1.676-20.899-28.75-37.004-24.126-54.148c 6.035-22.373, 42.201,9.402, 41.534-22.233c-0.372-18.479-20.79-40.712, 3.755-48.888
	c 14.258-4.748, 31.403,5.71, 40.432,17.47l 175.461,219.183c0,0, 28.191,28.16, 58.306,10.395c 86.699-51.2, 168.712-115.603, 257.489-162.087
	c 14.181-7.432, 25.212-1.489, 27.089,18.060c 0.9,9.107-0.078,14.227-4.996,19.968c-7.090,8.285-15.050,3.32-12.552,17.361
	c 3.351,18.742, 22.699,23.661, 18.882,47.849c-3.553,22.45-26.453,14.165-35.173,28.889c-4.236,7.152-1.924,8.456, 1.598,13.995
	c 4.112,6.501, 22.776,13.56, 17.594,27.85c-5.725,15.825-32.008,2.762-28.517,24.328c 2.405,15.034, 17.392,26.221, 15.003,44.963
	c-2.513,19.58-21.302,13.095-35.933,13.777c-0.931,22.869, 9.976,21.969, 16.88,40.417c 14.32,38.416-28.082,7.121-36.647,22.233
	c-8.906,15.748, 34.102,33.109, 34.009,48.547c-0.171,27.152-48.407-5.787-58.213,7.323s-0.465,15.608, 1.893,23.552
	c 1.738,5.756, 10.131,14.553, 7.152,21.845c-6.625,16.058-45.971,4.018-52.333-7.121l-133.213-177.695c0,0-31.527-28.16-60.99-19.27
	C 266.83,277.015, 23.102,355.506, 23.102,355.506" horiz-adv-x="636.121" data-tags="pasta" />
<glyph unicode="&#xe00a;" d="M 256.171,480C 114.921,480,0,365.079,0,223.845c0-141.25, 114.921-256.171, 256.171-256.171c 141.25,0, 256.171,114.905, 256.171,256.171
	C 512.326,365.079, 397.421,480, 256.171,480 M 64.946,223.845c0,105.441, 85.783,191.209, 191.224,191.209c 43.163,0, 83.053-14.414, 115.076-38.617L 103.579,108.738
	C 79.36,140.792, 64.946,180.666, 64.946,223.845 M 256.171,32.621c-38.865,0-75.016,11.683-105.208,31.666L 415.713,329.053
	c 19.984-30.192, 31.666-66.358, 31.666-105.208C 447.379,118.388, 361.612,32.621, 256.171,32.621" data-tags="non-inflammatory ingredients" />
<glyph unicode="&#xe00b;" d="M 262.448,480C 117.504,480,0,362.48,0,217.536s 117.504-262.432, 262.448-262.432c 144.944,0, 262.432,117.504, 262.432,262.432
	S 407.376,480, 262.448,480 M 221.76,96.448l-120.752,120.784l 46.4,46.384l 74.352-74.4l 157.744,157.76l 46.384-46.384L 221.76,96.448z" data-tags="monthly poll" />
<glyph unicode="&#xe00c;" d="M 331.342,388.647c 22.699,0, 41.131,18.416, 41.131,41.131c0,22.73-18.432,41.146-41.131,41.146
	c-22.73,0-41.131-18.416-41.131-41.146C 290.211,407.063, 308.612,388.647, 331.342,388.647M 379.578,380.098l-90.733,0 c-15.608,0-22.14,12.505-22.792,17.175c-0.047,0.295-17.299,68.748-17.299,68.748
	c-5.911,23.831-37.097,14.786-31.185-9.030l 21.535-85.721c 6.749-27.198, 17.268-45.335, 43.629-47.709l0-333.777 c0-12.66, 10.333-23.024, 23.056-23.024
	c 12.738,0, 23.056,10.333, 23.056,23.024c0,0, 0.186,194.56, 0.186,197.306c 0.465,7.478, 6.594,6.33, 6.594,6.33s 4.096,0.465, 4.298-6.113
	c 0.233-6.625-0.838-197.523-0.838-197.523c0-12.66, 10.302-23.024, 23.056-23.024c 12.738,0, 23.024,10.333, 23.024,23.024l 0.124,333.591l 10.116-101.112
	c0-24.7, 32.272-24.7, 32.147,0l-8.409,115.324C 419.157,364.909, 392.735,378.965, 379.578,380.098M 144.943,360.72L 60.369,362.085c-27.601,0-39.362-35.918-39.362-64.016l-5.446-76.691c0-23.273, 27.958-22.342, 27.958,0.931
	l 9.79,94.751l-0.016-87.087l-24.731-90.096l 24.716,0 l-0.016-139.078c0-12.071, 9.806-21.861, 21.861-21.861c 12.086,0, 21.892,9.79, 21.892,21.861
	l0,139.078 L 106.744,139.877 l-0.047-139.078c0-12.071, 9.806-21.861, 21.861-21.861c 12.071,0, 21.876,9.79, 21.876,21.861l 0.031,139.078l 19.378,0 L 150.497,229.958
	l 0.031,87.087l 9.588-94.736c0-23.459, 28.47-25.336, 28.408-1.877c-0.047,15.050-3.77,64.76-5.896,77.638
	C 176.888,332.761, 170.651,361.48, 144.943,360.72M 580.344,368.043c 21.582,0, 39.005,17.47, 39.005,39.005c0,21.551-17.424,39.021-39.005,39.021
	c-21.551,0-39.005-17.47-39.005-39.021C 541.355,385.513, 558.809,368.043, 580.344,368.043M 61.983,417.598c-0.946-3.367-1.614-6.858-1.614-10.55c0-21.52, 17.455-38.99, 39.005-38.99
	c 21.535,0, 39.005,17.47, 39.005,38.99c0,21.566-17.47,39.036-39.005,39.036c-12.676,0-23.831-6.16-30.968-15.531
	c 1.086,4.375, 1.179,9.464-0.202,13.902C 66.498,449.901, 62.635,454.307, 55.87,455.021C 39.129,456.789, 29.075,426.193, 26.050,414.2
	c0,0-16.989-34.18-26.050-25.041C 17.16,371.859, 48.314,397.615, 61.983,417.598M 660.93,298.085c-5.725,34.692-11.962,63.395-37.671,62.65L 538.686,362.085c-27.601,0-39.362-35.902-39.362-64
	l-5.461-76.722c0-23.273, 27.974-22.326, 27.974,0.946l 9.79,94.751l-0.062-316.292c0-12.040, 9.821-21.861, 21.861-21.861
	c 12.102,0, 21.892,9.821, 21.892,21.861c0,0-0.171,176.392,0,183.482c 0.186,7.090, 5.027,5.71, 5.027,5.71s 4.732,0.977, 4.732-5.71
	c0-6.718-0.078-183.482-0.078-183.482c0-12.040, 9.79-21.861, 21.861-21.861c 12.086,0, 21.876,9.821, 21.876,21.861l 0.093,316.292l 9.573-94.736
	c0-23.443, 28.486-25.321, 28.424-1.877C 666.81,235.481, 663.056,285.207, 660.93,298.085" horiz-adv-x="651.636" data-tags="monthly pledge" />
<glyph unicode="&#xe00d;" d="M0-45.984l 1058.704,0 c0,0-28.352,79.84-85.008,79.84c0,0-100.464-10.304-100.464,25.776c0,36.032, 2.56,61.808, 28.336,64.368
	c 25.76,2.592, 41.232,15.472, 41.232,33.472c0,36.96-28.352,38.656-33.504,59.264c-5.168,20.624, 6.288,123.52-11.728,151.856
	c-18.048,28.336-47.52,80-86.144,80c-38.656,0-90.16,5.136-110.784-10.304c-20.592-15.472-57.232-56-57.232-86.912s 2.528-103.728-7.744-111.456
	c-10.32-7.712-20-35.024-20-64.4c0-51.968, 54.080-48.928, 48.928-87.584c-5.136-38.624-30.928-56.656-54.080-56.656
	c-23.184,0-77.296,36.032-121.072,36.032c-43.76,0-64.384,54.128-79.84,54.128s-19.344,32.192-2.576,48.928c 16.736,16.752, 43.792,53.904, 43.792,84.816
	L 450.816,363.6 C 450.8,399.648, 410.496,480, 368.976,480l-93.344,0 c-43.808,0-66.96-28.448-79.824-51.648C 182.928,405.184, 177.6,391.312, 177.6,337.216
	c0-54.096, 0.992-62.704, 0.992-96.192c0-48.608, 35.216-35.84, 35.216-71.904l0-60.56 c0-15.44-48.944-23.184-82.432-28.32
	c-33.456-5.152-61.808-38.64-77.28-51.536C 38.608,15.84,0-7.344,0-7.344L0-45.984 z" horiz-adv-x="1056" data-tags="meet the experts" />
<glyph unicode="&#xe00e;" d="M 380.24,268.672c0,46.896-38.032,84.896-84.912,84.896c-46.896,0-84.912-38-84.912-84.896s 38.016-84.896, 84.912-84.896
	C 342.208,183.76, 380.24,221.76, 380.24,268.672M 376.96,176.304c-21.744-19.232-50.32-30.944-81.632-30.944c-9.056,0-17.872,1.008-26.368,2.88l 39.264-195.424
	l 109.232,21.952L 376.96,176.304zM 57.104,480L0,384.336l 172.672-103.056c 4.064,40, 27.28,74.336, 60.32,93.744L 57.104,480z" horiz-adv-x="416" data-tags="joint care" />
<glyph unicode="&#xe00f;" d="M 502.992,159.008L 319.904,159.008 l0-181.968 c0-12.416-5.664-22.624-18.112-22.624l-79.104,0 c-12.432,0-18.080,10.208-18.080,22.624
	L 204.608,159.008 L 22.656,159.008 C 10.192,159.008,0,164.672,0,177.104l0,79.104 c0,12.448, 10.192,18.096, 22.656,18.096l 181.952,0 L 204.608,457.392 c0,12.448, 5.648,22.608, 18.080,22.608
	l 79.104,0 c 12.432,0, 18.112-10.16, 18.112-22.608l0-183.088 l 183.072,0 c 12.432,0, 22.624-5.648, 22.624-18.096l0-79.104 
	C 525.616,164.672, 515.424,159.008, 502.992,159.008" data-tags="inspiration of the day" />
<glyph unicode="&#xe010;" d="M 246.912,408.24c0-39.632-32.128-71.76-71.76-71.76c-39.616,0-71.76,32.128-71.76,71.76
	C 103.376,447.888, 135.52,480, 175.136,480C 214.784,480, 246.912,447.888, 246.912,408.24M 92.224,310.256L 257.6,310.256L 323.008,186.384L 295.024,166.576L 238.048,238.416L 257.6-46.48L 238.048-46.48L 166.272,131.872L 103.376-46.48L 75.648-46.48L 111.008,242.544L 16.528,159.952L0,189.664 z" horiz-adv-x="320" data-tags="home" />
<glyph unicode="&#xe011;" d="M 776.096-10.704c0-18.064-14.656-32.752-32.752-32.752L 32.72-43.456 C 14.656-43.456,0-28.768,0-10.704L0,447.264 
	C0,465.328, 14.656,480, 32.72,480l 710.624,0 c 18.096,0, 32.752-14.672, 32.752-32.736L 776.096-10.704 zM 200.816,344.608L 573.152,344.608L 573.152,285.376L 200.816,285.376zM 200.816,241.856L 573.152,241.856L 573.152,182.624L 200.816,182.624zM 200.816,139.088L 573.152,139.088L 573.152,79.856L 200.816,79.856z" horiz-adv-x="768" data-tags="hamburger" />
<glyph unicode="&#xe012;" d="M 56.165,71.75c-29.2,1.753-54.303-20.496-56.056-49.711s 20.496-54.303, 49.711-56.056c 29.2-1.753, 54.303,20.496, 56.056,49.711
	S 85.364,69.981, 56.165,71.75M 72.394,84.038c 29.215-1.753, 54.319,20.496, 56.072,49.711c 1.753,29.2-20.511,54.303-49.726,56.056
	c-29.2,1.753-54.303-20.496-56.056-49.695C 20.914,110.895, 43.179,85.807, 72.394,84.038M 163.685,112.818c-29.215,1.753-54.319-20.48-56.056-49.695c-1.769-29.215, 20.496-54.303, 49.695-56.056
	c 29.215-1.753, 54.319,20.48, 56.072,49.711C 215.164,85.977, 192.9,111.081, 163.685,112.818M 280.56,106.907c-29.215,1.753-54.319-20.496-56.072-49.711c-1.738-29.215, 20.496-54.303, 49.711-56.056
	s 54.319,20.496, 56.072,49.711C 332.024,80.050, 309.76,105.154, 280.56,106.907M 231.827,215.994c-29.215,1.753-54.319-20.496-56.072-49.711c-1.769-29.2, 20.496-54.303, 49.711-56.056
	s 54.319,20.496, 56.072,49.695C 283.291,189.137, 261.027,214.241, 231.827,215.994M 139.217,183.971c 29.215-1.753, 54.319,20.496, 56.056,49.711c 1.784,29.215-20.496,54.303-49.711,56.056
	c-29.2,1.753-54.303-20.48-56.056-49.695S 110.002,185.724, 139.217,183.971M 316.261,268.249c 1.753,29.215-20.496,54.303-49.711,56.056c-29.215,1.769-54.319-20.496-56.056-49.695
	c-1.769-29.215, 20.48-54.319, 49.695-56.056C 289.404,216.785, 314.508,239.034, 316.261,268.249M 181.946,304.462c 29.215-1.738, 54.303,20.496, 56.072,49.711s-20.511,54.303-49.711,56.056
	c-29.215,1.753-54.319-20.496-56.072-49.711S 152.731,306.215, 181.946,304.462M 394.783,159.178c 1.753,29.215-20.496,54.303-49.711,56.056s-54.319-20.496-56.072-49.711
	c-1.738-29.215, 20.496-54.319, 49.711-56.056C 367.911,107.714, 393.030,129.963, 394.783,159.178M 399.639,111.376c-29.215,1.753-54.319-20.48-56.056-49.711c-1.784-29.2, 20.48-54.303, 49.695-56.056
	c 29.215-1.738, 54.319,20.496, 56.072,49.695C 451.119,84.534, 428.854,109.622, 399.639,111.376M 401.61,276.705c0,0, 132.717,57.53, 128.109,141.157l-35.281,9.2c0,0, 25.321-83.627-95.123-142.693
	c0,0, 20.728,149.613-34.537,177.23c0,0-6.144-36.057-22.249-51.402c0,0-5.384,52.938-95.108,69.818c0,0, 66.731-48.345, 57.515-103.579
	c0,0-26.841,42.201-86.699,41.441c0,0, 69.058-41.425, 42.977-69.818c0,0, 75.186,8.44, 76.722-87.459c0,0, 79.794-1.536, 86.683-124.276
	c0,0, 47.554,40.65, 78.243,3.056s-6.889,68.282, 20.713,65.97c 27.617-2.281, 31.449,21.488, 31.449,21.488S 484.461,295.882, 401.61,276.705" horiz-adv-x="543.030" data-tags="fruit" />
<glyph unicode="&#xe013;" d="M 100.305,110.227c 13.529,0, 24.374,10.969, 24.374,24.483l0,93.386 c 16.275,4.53, 33.978,13.855, 47.042,27.322
	c 18.711,19.316, 28.796,45.103, 28.796,72.595L 200.518,376.964 c0,27.477-9.759,53.279-28.455,72.58C 153.026,469.201, 127.659,480, 100.088,480
	C 72.549,480, 47.849,469.248, 28.594,449.699c-19.084-19.394-28.517-45.227-28.517-72.735l0-0.419 L0,327.75c 0.062-27.4, 9.899-53.077, 28.563-72.347
	c 6.020-6.191, 12.443-11.497, 19.627-15.872L 47.306,377.166C 47.414,407.389, 70.222,431.034, 99.98,431.034c 29.339,0, 51.79-23.754, 51.79-54.055l0-48.966 
	c0-20.852-10.814-38.586-27.089-47.632l0,30.441 c0,13.529-10.845,24.483-24.374,24.483c-13.529,0-24.374-10.954-24.374-24.483l0-92.982 
	c-16.26-4.344-33.823-13.777-47.414-27.57c-19.099-19.394-28.439-45.211-28.439-72.72l0-0.434 L0,68.321c 0.062-27.4, 9.899-53.093, 28.579-72.347
	c 19.037-19.642, 44.451-30.456, 72.006-30.456c 27.539,0, 52.55,10.814, 71.571,30.456c 18.727,19.316, 28.362,45.087, 28.362,72.58l0,48.981 
	c0,27.477-10.209,53.264-28.905,72.58c-6.035,6.222-14.429,11.559-19.844,15.95l0-137.511 c0-30.317-22.528-54.055-51.867-54.055
	c-29.339,0-52.084,23.754-52.084,54.055c0,0.155, 0.124,0.295, 0.109,0.434l-1.024,48.733c 0.062,21.504, 12.769,39.688, 29.013,48.361l0-31.356 
	C 75.916,121.197, 86.776,110.227, 100.305,110.227" horiz-adv-x="186.182" data-tags="expert bios - RA connection" />
<glyph unicode="&#xe014;" d="M 190.666,376.064c-28.129,0-51.060,23.304-51.060,51.96C 139.605,456.681, 162.521,480, 190.666,480
	c 28.113,0, 50.936-23.319, 50.936-51.991C 241.602,399.368, 218.764,376.064, 190.666,376.064M 334.119,263.036l-81.765,83.192c-6.796,6.78-14.46,10.845-25.817,10.845l-35.995,0 L 153.91,357.073 
	c-11.435,0-122.43,33.839-122.43,33.839C 5.663,402.145-19.037,366.227, 21.364,349.393l 105.208-28.408l0-159.434 L 125.936-9.332
	c-0.217-31.465, 40.215-31.139, 40.417-0.698c 4.53,56.242, 8.223,112.64, 13.312,168.805c 0.993,11.202-0.481,36.197, 19.472,29.153
	c 6.656-2.312, 48.593-40.727, 49.462-39.796l-52.689-28.703c-21.302-21.675,0-46.732, 30.146-30.239c 13.033,6.578, 26.096,13.095, 39.114,19.72
	c 15.546,7.913, 33.342,13.979, 37.050,33.171c 3.553,18.479-7.82,30.565-19.875,42.744c-9.449,9.542-18.82,19.177-28.238,28.75l0,71.727 l 50.176-51.029
	C 324.422,212.596, 355.235,241.61, 334.119,263.036" horiz-adv-x="325.818" data-tags="expert bios - occupation" />
<glyph unicode="&#xe015;" d="M 175.507,480C 78.584,480,0,401.431,0,304.508c0-2.079, 0.078-4.205, 0.171-6.33c 0.652-18.432, 4.143-36.135, 10.054-52.689
	c 37.438-123.082, 165.283-283.601, 165.283-283.601s 127.829,160.535, 165.267,283.586c 5.927,16.555, 9.387,34.288, 10.038,52.705
	c 0.109,2.141, 0.171,4.251, 0.171,6.33C 350.999,401.431, 272.431,480, 175.507,480 M 175.507,218.554c-47.476,0-85.954,38.462-85.954,85.954
	c0,47.461, 38.478,85.938, 85.954,85.938c 47.492,0, 85.954-38.478, 85.954-85.938C 261.461,257.032, 222.999,218.554, 175.507,218.554" horiz-adv-x="341.333" data-tags="expert bios - location" />
<glyph unicode="&#xe016;" d="M 4469.824,68.992c 155.904,281.984-54.656,314.496-54.656,314.496L 2258.304,383.488 C 1631.872,441.216, 930.048,480, 678.912,480
	C 303.936,480,0,393.408,0,286.72c0-106.752, 303.936-193.28, 678.912-193.28c 250.24,0, 950.528,38.592, 1573.056,95.872l-3.904-196.224
	C 2248.064-6.848, 4313.92-212.864, 4469.824,68.992" horiz-adv-x="4480" data-tags="entrees" />
<glyph unicode="&#xe017;" d="M 731.904,42.304L 538.4,233.648l-172.224-131.984l-172.688,131.424L 0.576,41.248l 0.144-58.32
	c 0.032-16.784, 14.592-30.336, 32.496-30.288l 666.352,1.056c 17.936-0.048, 32.432,13.568, 32.416,30.336L 731.904,42.304zM 0.096,380.288L 0.48,113.024L 152.544,264.24 zM 731.792,114.176L 731.392,381.376L 579.312,264.88 zM 731.296,436.672L 731.296,449.696 C 731.248,466.512, 716.704,480.048, 698.816,480L 32.4,479.008C 14.48,478.976-0.032,465.408,0,448.608l0-13.024 
	l 366.112-278.656L 731.296,436.672z" horiz-adv-x="720" data-tags="e-mail" />
<glyph unicode="&#xe018;" d="M 20.224,25.328C 6.736,58.064,0,90.656,0,123.12c0,33.264, 7.44,65.712, 22.288,97.36L 70.56,220.48 
	c 10.992,0, 19.104,1.84, 24.336,5.568S 108.912,240, 121.312,256.784l 11.552,15.264c 12.64,17.344, 21.584,29.024, 26.816,35.072l 76.752,81.28L 257.040,480
	l 11.552-2.896c 43.472-10.192, 65.216-35.76, 65.216-76.736c0-14.864-7.312-35.888-21.872-63.12l-6.208-11.552
	c-12.096-23.104-19.792-47.040-23.104-71.792l 11.568,0 c 39.872,0, 72.064-6.96, 96.56-20.848c 24.464-13.888, 36.704-31.968, 36.704-54.256
	c0-19.536-7.552-37.28-22.688-53.232c 6.048-9.632, 9.072-18.704, 9.072-27.216c0-21.168-11.152-34.8-33.456-40.864
	c 0.864-4.944, 1.264-8.928, 1.264-11.936c0-25.6-14.848-39.648-44.56-42.096c 0.544-3.6, 0.848-6.192, 0.848-7.84
	c0-14.32-5.024-25.024-15.072-32.176c-10.032-7.168-25.232-10.752-45.584-10.752l-18.16,0 l-14.432,7.424c-18.16-4.944-34.112-7.424-47.872-7.424
	c-4.928,0-12.64,0.416-23.104,1.248c-32.992,15.12-63.68,38.912-92,71.376L 20.224,25.312 z" horiz-adv-x="416" data-tags="easy-to-make" />
<glyph unicode="&#xe019;" d="M 287.877,265.737c0,52.262, 22.016,100.731, 59.259,140.705c-15.91,1.877-32.161,3.11-48.83,3.11
	C 133.556,409.553,0,313.619,0,195.29c0-58.861, 33.090-112.185, 86.642-150.926c 1.233-52.281-40.751-77.179-40.751-77.179
	c 62.199-2.882, 95.839,24.026, 110.118,39.765c 42.287-16.517, 90.776-25.903, 142.298-25.903c 76.629,0, 146.299,20.935, 199.149,55.049
	C 374.879,72.353, 287.877,161.517, 287.877,265.737M 917.39,265.737C 917.39,384.085, 783.834,480, 619.084,480c-164.75,0-298.306-95.915-298.306-214.263
	s 133.556-214.263, 298.306-214.263c 26.377,0, 51.769,2.712, 76.117,7.301c 9.064-17.711, 35.271-54.746, 99.745-66.693c0,0-38.305,36.845-19.968,91.212
	C 860.312,121.031, 917.39,188.501, 917.39,265.737" horiz-adv-x="910.222" data-tags="doctor discussion" />
<glyph unicode="&#xe01a;" d="M 370.48,392.992C 346.464,443.408, 274.512,480, 189.504,480C 84.848,480,0,424.528,0,356.080c0-68.432, 84.848-123.936, 189.504-123.936
	c 85.008,0, 156.944,36.608, 180.976,87.008L 780.48,319.152 L 780.48,392.992 L 370.48,392.992 zM 317.504,186.672L 22.176,186.672 l0-31.856 l 217.536,0 c0,0, 13.424-19.104, 0.656-39.552L 22.176,115.264 l0-34.064 l 217.872,0 
	c0,0, 3.952-7.568, 3.952-16.16l0-0.88 c0-8.56-3.952-16.16-3.952-16.16L 22.176,48 l0-32.624 l 218.192,0 c 10.784-16.8-0.656-30.656-0.656-30.656L 22.176-15.28 
	l0-32.32 l 295.328,0 c 60.64,0, 52.736,71.216, 52.736,71.216l 396.848,0 L 767.088,57.92 l0,23.28 l0,34.272 L 370.24,115.472 C 370.24,115.472, 378.144,186.672, 317.504,186.672" horiz-adv-x="768" data-tags="diet&exercise" />
<glyph unicode="&#xe01b;" d="M 501.278,480C 325.662,480,0,362.089,0,216.712c0-145.438, 325.662-263.319, 501.278-263.319c 162.635,0, 296.719,101.135, 315.573,231.635
	c 311.085-30.118, 859.738-50.808, 986.443-50.808c 179.351,0, 324.698,41.382, 324.698,92.401S 1982.645,319.051, 1803.294,319.051
	c-127.217,0-679.725-20.781-990.148-51.11C 784.354,388.804, 655.691,480, 501.278,480" horiz-adv-x="2108.235" data-tags="desserts" />
<glyph unicode="&#xe01c;" d="M 535.398-27.392c0-15.462-12.544-27.955-27.955-27.955L 27.955-55.347 C 12.544-55.347,0-42.854,0-27.392L0,452.045 
	C0,467.482, 12.544,480, 27.955,480l 479.488,0 c 15.411,0, 27.955-12.518, 27.955-27.955L 535.398-27.392 zM 421.402,115.277L 324.301,212.326L 421.35,309.376L 364.749,366.029L 267.699,268.954L 170.65,366.003L 113.997,309.376L 211.046,212.326L 113.997,115.277L 170.65,58.624L 267.699,155.699L 364.749,58.65 z" data-tags="close OVER" />
<glyph unicode="&#xe01d;" d="M 496.973-16.973L 38.4-16.973 L 38.4,441.6 l 458.573,0 L 496.973-16.973 z M 507.418,480L 27.955,480 C 12.518,480,0,467.482,0,452.045l0-479.462 
	c0-15.462, 12.518-27.955, 27.955-27.955l 479.462,0 c 15.437,0, 27.955,12.493, 27.955,27.955L 535.373,452.045 C 535.373,467.482, 522.829,480, 507.418,480M 421.35,115.251L 324.275,212.301L 421.325,309.35L 364.723,366.003L 267.674,268.928L 170.624,365.978L 113.997,309.35L 211.046,212.301L 113.997,115.251L 170.624,58.624L 267.674,155.699L 364.749,58.65 z" data-tags="close OFF" />
<glyph unicode="&#xe01e;" d="M 149.792,369.872L 149.76,355.6l 44.512-0.096l 0.032,14.288c0,4.368-0.112,8.96-0.256,13.392
	c-0.864,29.536, 0.816,40.256, 12.432,45.552c 7.088,3.232, 31.952,6.72, 69.84,6.72c 37.872,0, 62.752-3.488, 69.808-6.72
	c 11.632-5.296, 13.312-16.096, 12.4-46.208c-0.112-4.24-0.224-8.576-0.224-12.736l 0.064-14.288l 44.496,0.096l-0.032,14.272
	c-0.032,3.856, 0.112,7.824, 0.224,12.016c 0.784,27.44, 2,68.896-38.432,87.344C 342.736,479.232, 291.488,480, 276.336,480
	c-15.184,0-66.416-0.768-88.32-10.768c-40.448-18.448-39.248-59.904-38.448-87.36C 149.664,377.696, 149.792,373.712, 149.792,369.872M 426.896,340.736L 119.136,340.736 C 53.344,340.736,0,287.392,0,221.616l0-68.816 l 204.64,0 c 5.232,26.224, 28.432,46.032, 56.16,46.032l 34.352,0 
	c 27.728,0, 50.928-19.808, 56.144-46.032l 194.704,0 l0,68.816 C 546,287.392, 492.672,340.736, 426.896,340.736M 295.136,84.272l-34.336,0 c-28.672,0-52.4,21.168-56.576,48.656L 0.016,132.928 l0-55.664 c0-65.792, 53.344-119.104, 119.12-119.104L 426.88-41.84 
	c 65.808,0, 119.136,53.312, 119.136,119.104l0,55.664 L 351.696,132.928 C 347.536,105.44, 323.792,84.272, 295.136,84.272M 295.008,109.856c 13.904,0, 25.168,14.784, 25.168,33.040c0,18.24-11.264,33.008-25.168,33.008l-34.096,0 
	c-13.888,0-25.152-14.784-25.152-33.008c0-18.272, 11.264-33.040, 25.152-33.040L 295.008,109.856 z" horiz-adv-x="544" data-tags="care tools1" />
<glyph unicode="&#xe01f;" d="M 642.016,388.4C 497.184,618.416, 335.328,342.736, 335.328,342.736S 173.456,618.416, 28.656,388.4
	C-116.192,158.384, 335.328-46.080, 335.328-46.080S 786.864,158.384, 642.016,388.4" horiz-adv-x="656" data-tags="care tools" />
<glyph unicode="&#xe020;" d="M 682.93,181.349c-0.884,64.838-72.037,146.106-137.092,146.106c-16.229,0-59.982,46.018-78.677,65.676
	c-7.432,7.82-14.429,15.174-21.101,21.861C 383.814,477.207, 334.383,480, 263.090,480C 118.008,480,0,361.976,0,216.894l0-8.425 
	c0-4.701, 0.279-9.356, 0.698-13.933l0-88.607 c0-79.608, 65.334-144.353, 145.625-144.353l 420.042,0 c 64.326,0, 116.674,51.867, 116.674,115.634l0,106.108 
	C 683.024,183.319, 683.008,182.59, 682.93,181.349 M 564.053,82.579L 147.658,82.579 c-69.43,0-125.89,56.475-125.89,125.905l0,8.409 
	C 21.737,349.983, 130.032,458.263, 263.090,458.263c 65.303,0, 109.568-0.636, 167.564-58.616c 6.532-6.516, 13.467-13.824, 20.728-21.457
	c 29.060-30.58, 68.872-72.471, 94.456-72.471c 53.605,0, 115.417-72.347, 115.417-125.952C 661.256,126.161, 617.674,82.579, 564.053,82.579M 525.964,284.447c-37.174,0-66.824,30.736-100.119,64.047c-41.038,41.038-92.548,73.681-155.089,73.681
	c-110.483,0-200.068-89.569-200.068-200.083l0-7.587 c0-52.922, 42.915-95.822, 95.822-95.822l 375.932,0 c 38.602,0, 69.88,31.31, 69.88,69.896
	C 612.336,227.181, 564.627,284.447, 525.964,284.447 M 387.817,142.173c 4.003-34.568-27.819-1.117-27.819-1.117s-14.088,59.097-47.399,86.792
	c-33.296,27.664-190.542,37.298-190.542,37.298c-85.938,22.714, 107.784,2.312, 173.909,12.195c 66.126,9.868, 75.854,61.843, 75.854,61.843
	c 23.335,40.882, 32.877,3.103, 32.877,3.103C 375.699,240.431, 374.148,259.018, 387.817,142.173" horiz-adv-x="682.667" data-tags="beef" />
<glyph unicode="&#xe021;" d="M 134.485,222.138L0,404.426L0,480L 190.247,222.138L0-35.708L0,39.866 z" horiz-adv-x="186.182" data-tags="arrow right" />
<glyph unicode="&#xe022;" d="M 55.761,222.138L 190.278,404.426L 190.278,480L0,222.138L 190.278-35.708L 190.278,39.866 z" horiz-adv-x="186.182" data-tags="arrow left" />
<glyph unicode="&#xe023;" d="M 410.221,310.078L 410.221,473.018L 342.59,473.018L 342.59,377.709L 240.299,480L0,239.686L 70.377,239.686L 70.377-35.072L 174.359-35.072L 174.359,132.321L 306.223,132.321L 306.223-35.072L 410.221-35.072L 410.221,239.686L 480.597,239.686 z" horiz-adv-x="465.455" data-tags="around the home" />
<glyph unicode="&#xe024;" d="M 780.249,480L 780.249,480C 524.8,479.685,0,458.811,0,433.093s 524.8-46.631, 780.249-46.907l0-58.014 
	C 524.8,327.857,0,306.944,0,281.226S 524.8,234.634, 780.249,234.319l0-63.527 C 524.8,170.476,0,149.602,0,123.845c0-25.718, 524.8-46.592, 780.249-46.946
	l0-52.421 C 524.8,24.123,0,3.289,0-22.469c0-25.758, 524.8-46.631, 780.249-46.907l 0.394,0 l 5.514,0 l0,0.039 c 179.436,1.969, 328.704,93.223, 366.159,214.922
	C 1561.206,109.942, 2205.538,85.996, 2360.596,85.996c 231.542,0, 419.249,53.406, 419.249,119.296c0,65.93-187.707,119.296-419.249,119.296
	C 2205.538,324.628, 1561.206,300.642, 1152.315,265.039c-37.455,121.62-186.722,212.953-366.159,214.922L 786.156,480 l-5.514,0 L 780.249,480 z" horiz-adv-x="2756.923" data-tags="appetizer" />
<glyph unicode="&#xe025;" d="M 263.68-47.376L0,216.304L 131.84,216.304L 131.84,480L 395.52,480L 395.52,216.304L 527.344,216.304 z" data-tags="anti-oxidant" />
<glyph unicode="&#xe026;" d="M 96.27,108.843l 4.907-28.459c 3.3-19.271, 6.315-38.556, 9.472-57.372c 2.048-12.501, 4.281-13.426, 13.739-14.421    l-0.796-4.409L 83.3,4.181 l 0.953,4.409l 5.362,0.811c 5.205,0.654, 6.329,2.204, 5.205,8.69l-3.812,22.457L 61.34,40.548     c-2.517-4.409-6.955-13.568-10.425-20.551c-4.11-8.22-3.641-9.941, 2.375-10.738l 5.362-0.668l-0.953-4.409L 22.471,4.181 l 0.939,4.409    c 9.316,1.095, 11.861,2.375, 19.755,16.142l 46.606,82.176L 96.27,108.843z M 64.64,47.815l 25.444,0 l-5.988,35.897L 83.783,83.712 L 64.64,47.815z     M 224.91,106.923l 20.082-76.174l 47.076,76.174l 29.54,0 l-0.939-4.409c-12.516-1.109-13.767-1.906-16.441-19.129l-8.676-55.623    c-2.702-17.252-2.233-18.034, 10.581-19.143l-0.953-4.409l-43.264,0 l 0.796,4.409c 12.004,1.095, 13.127,1.92, 16.114,19.143l 10.581,61.156l-0.64,0     l-50.56-82.958l-4.75,0 l-19.271,79.943l-0.313,0 l-9.173-40.604c-3.285-15.019-4.736-23.708-5.191-28.587c-0.626-5.703, 2.532-7.296, 12.956-8.078    l-0.811-4.409l-37.589,0 l 0.811,4.608c 8.021,0.299, 11.833,2.176, 14.066,7.922c 1.721,4.892, 4.565,14.023, 8.377,29.383l 8.69,34.759    c 4.75,18.958, 3.157,20.537-10.126,21.646l 0.939,4.409l 28.132,0 L 224.953,106.923 z M 373.12,20.48c-15.616-15.758-29.383-18.133-36.181-18.133    c-7.396,0-18.176,4.551-18.176,23.068c0,14.507, 7.111,31.104, 18.645,39.481c 6.798,4.949, 16.256,9.828, 25.116,9.828    c 9.771,0, 15.317-5.561, 15.317-12.658c0-14.535-27.008-24.505-42.041-29.241c-0.142-0.939-0.299-2.375-0.299-3.172    c0-7.381, 2.204-16.754, 11.506-16.754c 6.187,0, 14.393,3.157, 23.367,11.378L 373.12,20.48z M 350.364,65.991    c-4.437-2.517-11.221-9.941-13.895-27.804c 18.972,6.471, 25.728,13.241, 25.728,22.116c0,5.845-4.267,7.424-6.642,7.424    C 353.835,67.755, 351.972,66.944, 350.364,65.991z M 387.172,58.581c 9.131,8.676, 20.508,16.156, 26.197,16.156    c 5.063,0, 5.063-5.561, 3.157-14.393l-2.532-11.534l 0.313,0 c 10.752,12.942, 21.476,20.366, 28.274,23.552c 3.3,1.55, 6.016,2.375, 8.533,2.375    c 3.029,0, 8.704-1.92, 4.935-17.991l-1.906-7.78l 0.469-0.156c 10.908,13.127, 21.803,20.366, 28.288,23.552    c 3.3,1.55, 6.002,2.375, 8.377,2.375c 3.456,0, 9.643-1.92, 5.689-19.925c-1.906-8.22-5.532-21.476-8.391-34.588    c-0.939-4.124-1.436-5.532-0.156-5.532c 1.252,0, 6.94,3.285, 11.207,6.613l 2.048-3.94c-8.832-8.192-22.428-14.99-25.586-14.99    c-4.75,0-6.798,3.627-4.423,13.127l 9.017,36.964c 1.564,6.77, 2.219,10.596-1.55,10.596c-5.547,0-21.035-15.488-27.193-26.553    c-1.436-5.049-5.205-21.006-6.3-29.881l-16.924-4.238c 2.062,8.661, 3.94,17.351, 6.016,26.041l 6.016,26.098    c 0.939,4.281, 1.422,8.533-1.92,8.533c-5.532,0-21.177-15.488-27.449-26.553c-1.294-4.437-4.935-21.006-6.044-29.881l-17.067-4.238    c 2.375,8.661, 4.295,17.209, 6.187,25.899l 5.689,25.899c 1.252,5.703, 1.735,7.922, 0.455,7.922c-1.564,0-7.58-3.797-11.378-7.438    L 387.172,58.581z M 519.865,109.767c 12.956,2.688, 27.193,6.67, 28.587,6.67c 1.906,0, 2.204-2.702, 1.109-7.438l-12.146-54.997l 0.299,0     c 13.426,14.393, 26.724,20.736, 33.835,20.736c 6.315,0, 10.581-5.419, 10.581-14.564c0-18.802-9.956-39.78-23.694-49.28    c-9.486-6.485-18.517-8.533-24.988-8.533c-8.22,0-15.332,2.844-17.365,8.846c-1.095,3.47-0.811,6.642, 1.266,16.597l 14.393,71.097    c 1.252,6.329, 1.081,7.111-4.409,7.111L 519.879,106.012 L 519.865,109.767L 519.865,109.767z M 541.198,50.375c-5.845-6.784-6.485-9.344-8.676-22.926    c-2.204-14.236, 1.422-18.020, 7.737-18.020c 3.3,0, 5.532,0.796, 7.751,2.076c 7.737,4.409, 17.067,24.633, 17.067,42.155    c0,7.765-2.062,10.411-5.205,10.411C 555.406,64.1, 546.759,56.974, 541.198,50.375z M 647.509,20.48c-15.63-15.758-29.383-18.133-36.181-18.133    C 603.904,2.347, 593.18,6.898, 593.18,25.415c0,14.507, 7.097,31.104, 18.617,39.481c 6.812,4.949, 16.27,9.828, 25.131,9.828    c 9.785,0, 15.317-5.561, 15.317-12.658c0-14.535-27.008-24.505-42.027-29.241c-0.185-0.939-0.299-2.375-0.299-3.172    c0-7.381, 2.204-16.754, 11.52-16.754c 6.158,0, 14.379,3.157, 23.353,11.378L 647.509,20.48z M 624.782,65.991    c-4.423-2.517-11.221-9.941-13.909-27.804c 18.987,6.471, 25.742,13.241, 25.742,22.116c0,5.845-4.267,7.424-6.642,7.424    C 628.238,67.755, 626.347,66.944, 624.782,65.991z M 660.466,58.581c 9.145,8.676, 20.068,16.156, 25.429,16.156    c 4.124,0, 4.267-5.561, 3.015-11.093l-2.844-12.018l 0.469,0 c 7.566,13.596, 16.597,23.111, 21.177,23.111c 3.47,0, 6.955-1.579, 8.533-4.295    c 1.252-2.062, 0.796-5.205-0.469-7.282c-1.735-2.816-3.157-4.096-4.75-5.177c-1.564-1.124-3.157-1.266-4.75,0.142    c-1.564,1.252-3.641,1.906-5.063,1.906c-1.55,0-3.925-0.469-7.396-5.205c-3.797-4.921-6.485-10.126-8.533-16.597    c-3.157-15.019-5.22-25.899-5.532-31.303l-0.185,0 l-16.896-4.551c 1.892,8.533, 3.797,16.882, 5.547,25.572l 5.191,25.429    c 1.252,6.514, 1.422,8.718, 0.327,8.718c-1.465,0-7.595-4.11-11.236-7.438L 660.466,58.581z M 815.033,51.954    c0-14.080-6.172-29.568-16.782-38.869c-6.77-6.187-17.522-10.752-25.429-10.752c-16.896,0-22.272,13.127-22.272,24.647    c0,21.163, 11.378,35.228, 22.613,41.842c 6.955,4.11, 14.521,5.874, 19.726,5.874C 806.955,74.724, 815.033,65.052, 815.033,51.954z M 782.791,66.944    c-4.935-2.062-15.161-14.066-15.161-37.931c0-12.16, 4.082-19.883, 11.364-19.883c 1.579,0, 2.688,0.299, 3.812,0.612    c 6.002,2.062, 15.474,19.883, 15.175,40.789c0,11.705-4.11,17.351-10.439,17.351C 785.778,67.897, 784.213,67.584, 782.791,66.944z     M 876.032,70.912l-3.641-4.921l-15.957-1.564c-2.204-13.881-3.797-23.723-6.002-34.93c-5.845-30.649-13.426-45.98-20.238-53.248    c-7.268-7.78-14.862-10.297-18.347-10.297c-2.83,0-6.77,1.436-6.77,5.049c0,2.66, 1.564,5.675, 3.015,6.955    c 1.095,1.095, 2.83,1.906, 4.736,1.095c 2.062-0.924, 5.532-2.844, 7.396-2.844c 1.451,0, 2.702,0.612, 3.954,1.92    c 2.375,2.375, 5.22,12.786, 9.316,40.59c 2.859,19.584, 4.58,31.9, 6.642,45.653l-12.487,0 l-0.484,1.564l 4.608,4.921l 9.628,0     c 2.204,13.113, 6.315,24.363, 13.127,32.071c 6.485,7.296, 16.441,13.426, 26.553,13.426c 6.002,0, 10.283-3.172, 10.283-6.926    c0-3.328-2.546-6.044-3.94-7.31c-1.564-1.394-4.11-1.55-5.675,0c-3.797,3.641-7.751,5.703-11.534,5.703    c-4.409,0-7.908-6.656-12.644-36.992l 18.489,0 L 876.046,70.912 z M 957.284,91.904l-5.177-21.006l 19.428,0 l-5.063-5.675l-15.787-0.811l-9.031-41.244    c-1.252-6.002-0.626-8.69, 0.939-8.69c 2.844,0, 10.297,6.187, 14.251,9.956l 0.299-0.299l 2.375-3.029    c-5.035-6.315-20.238-18.788-28.132-18.788c-4.892,0-8.377,5.532-5.177,20.224l 9.017,41.856l-12.032,0 l-1.252,2.062l 4.722,4.423l 9.97,0     l 2.844,11.719l 15.801,10.894L 957.284,91.904z M 970.894,2.347c 1.579,8.021, 3.3,15.744, 4.907,23.836l 14.407,72.676    c 1.252,6.315, 1.081,7.111-4.281,7.111L 978.318,105.984 l0,3.783 c 12.956,2.688, 27.492,6.67, 28.757,6.67c 1.906,0, 2.204-2.702, 1.252-7.438    l-12.629-59.577l 0.299,0 c 10.894,12.316, 21.476,19.74, 28.26,22.94c 3.172,1.55, 6.315,2.375, 8.69,2.375c 3.641,0, 9.344-1.92, 6.187-16.441    c-2.546-11.705-5.547-24.988-8.363-38.073c-0.967-4.124-1.294-5.532, 0.142-5.532c 1.266,0, 6.955,3.285, 11.065,6.613l 2.062-3.94    c-8.548-8.192-22.286-14.99-25.899-14.99c-4.309,0-6.315,3.627-4.11,13.127l 8.533,36.964c 1.564,6.77, 1.906,10.596-1.735,10.596    c-5.845,0-20.864-14.876-27.179-25.756c-0.924-4.423-4.892-21.788-5.831-30.677L 970.894,2.347z M 1109.447,20.48    c-15.659-15.758-29.412-18.133-36.181-18.133c-7.41,0-18.176,4.551-18.176,23.068c0,14.507, 7.111,31.104, 18.645,39.481    c 6.784,4.949, 16.27,9.828, 25.102,9.828c 9.785,0, 15.332-5.561, 15.332-12.658c0-14.535-27.008-24.505-42.041-29.241    c-0.142-0.939-0.299-2.375-0.299-3.172c0-7.381, 2.204-16.754, 11.52-16.754c 6.187,0, 14.379,3.157, 23.353,11.378L 1109.447,20.48z     M 1086.706,65.991c-4.409-2.517-11.221-9.941-13.867-27.804c 18.958,6.471, 25.7,13.241, 25.7,22.116c0,5.845-4.252,7.424-6.628,7.424    C 1090.176,67.755, 1088.299,66.944, 1086.706,65.991z M 1214.251,106.923c 16.754,0, 34.119-4.281, 34.119-25.102c0-14.564-12.644-24.491-26.709-28.601    c 1.564-3.94, 6.016-14.535, 9.628-21.476c 4.437-8.69, 7.723-14.222, 10.098-17.55c 3.044-4.252, 6.044-6.471, 10.923-7.58l-1.095-3.769    l-5.077,0.142c-17.351,0.469-21.618,5.66-26.539,14.876c-4.252,8.192-8.22,17.692-11.193,25.116c-1.906,4.75-3.172,6.002-8.050,6.002    l-6.187,0 l-4.11-21.163c-3.3-17.067-2.204-18.176, 10.297-19.129l-0.811-4.423l-43.62,0 l 0.939,4.423c 12.16,0.953, 13.596,2.062, 16.91,19.129    l 10.596,55.623c 3.3,17.052, 2.204,18.176-9.956,19.129l 0.811,4.409l 39.040,0 L 1214.251,106.923 z M 1195.122,54.329l 6.158,0     c 6.016,0, 10.923,1.067, 15.972,4.252c 8.533,5.234, 13.426,14.393, 13.426,24.377c0,11.819-6.812,17.991-18.005,17.991    c-4.11,0-6.187-0.313-7.41-0.811c-1.266-0.469-1.564-1.906-2.204-4.608L 1195.122,54.329z M 1327.004,51.954    c0-14.080-6.187-29.568-16.782-38.869c-6.784-6.187-17.536-10.752-25.429-10.752c-16.91,0-22.286,13.127-22.286,24.647    c0,21.163, 11.364,35.228, 22.599,41.842c 6.955,4.11, 14.535,5.874, 19.769,5.874C 1318.926,74.724, 1327.004,65.052, 1327.004,51.954z M 1294.734,66.944    c-4.892-2.062-15.147-14.066-15.147-37.931c0-12.16, 4.082-19.883, 11.392-19.883c 1.536,0, 2.674,0.299, 3.783,0.612    c 5.988,2.062, 15.474,19.883, 15.175,40.789c0,11.705-4.11,17.351-10.425,17.351C 1297.778,67.897, 1296.171,67.584, 1294.734,66.944z M 1388.715,18.901    c-10.396-10.894-24.633-16.569-32.213-16.569c-12.032,0-18.645,8.192-18.645,22.613c 0.171,12.615, 5.675,28.572, 16.91,38.372    c 6.628,5.845, 17.252,11.406, 27.179,11.406c 6.784,0, 13.141-3.826, 13.141-8.249c0-2.375-1.735-4.75-4.409-6.94    c-2.702-2.204-5.675-1.564-6.983,0.171c-3.911,5.376-7.552,7.097-10.894,7.097c-3.3,0-7.111-2.517-10.425-8.519    c-4.409-7.609-7.381-19.627-7.381-29.554c-0.171-9.956, 3.271-15.801, 10.297-15.801c 9.003,0, 16.725,6.5, 20.836,9.657L 1388.715,18.901z     M 1399.609,2.347c 1.564,8.021, 3.3,15.744, 4.892,23.836l 14.407,72.676c 1.266,6.315, 1.095,7.111-4.281,7.111l-7.552,0 l0,3.783     c 12.942,2.688, 27.435,6.67, 28.715,6.67c 1.906,0, 2.233-2.702, 1.294-7.438l-12.658-59.577l 0.299,0 c 10.894,12.316, 21.476,19.74, 28.302,22.94    c 3.172,1.55, 6.315,2.375, 8.69,2.375c 3.641,0, 9.287-1.92, 6.158-16.441c-2.517-11.705-5.547-24.988-8.391-38.073    c-0.91-4.124-1.237-5.532, 0.171-5.532c 1.294,0, 6.955,3.285, 11.065,6.613l 2.062-3.94c-8.533-8.192-22.286-14.99-25.927-14.99    c-4.252,0-6.315,3.627-4.082,13.127l 8.533,36.964c 1.593,6.77, 1.906,10.596-1.735,10.596c-5.845,0-20.864-14.876-27.179-25.756    c-0.939-4.423-4.921-21.788-5.845-30.677L 1399.609,2.347z M 1538.162,20.48c-15.63-15.758-29.383-18.133-36.167-18.133    c-7.41,0-18.176,4.551-18.176,23.068c0,14.507, 7.111,31.104, 18.645,39.481c 6.784,4.949, 16.27,9.828, 25.131,9.828    c 9.756,0, 15.303-5.561, 15.303-12.658c0-14.535-27.008-24.505-42.041-29.241c-0.171-0.939-0.284-2.375-0.284-3.172    c0-7.381, 2.176-16.754, 11.492-16.754c 6.158,0, 14.407,3.157, 23.381,11.378L 1538.162,20.48z M 1515.406,65.991    c-4.409-2.517-11.193-9.941-13.895-27.804c 18.987,6.471, 25.756,13.241, 25.756,22.116c0,5.845-4.281,7.424-6.656,7.424    C 1518.919,67.755, 1516.985,66.944, 1515.406,65.991z M 1683.812,79.445c-0.811,19.428-12.331,23.524-25.301,23.524    c-28.274,0-46.151-25.742-46.151-55.452c0-23.367, 10.596-39.367, 32.384-39.367c 6.656,0, 13.596,1.749, 14.905,8.875l 3.143,16.768    c 2.062,11.051, 1.436,11.193-15.502,12.302l 0.811,5.063l 43.62,0 l-0.811-5.063c-7.893-0.654-9.145-0.939-11.364-12.302l-2.844-14.393    c-0.782-4.139-1.095-8.405-0.967-11.236c-9.756-2.66-21.589-6.329-34.119-6.329c-28.572,0-48.356,15.801-48.356,45.383    c0,36.978, 31.147,62.080, 69.205,62.080c 12.473,0, 23.097-2.688, 28.132-4.082c-0.469-5.404-1.294-13.596-1.906-25.301L 1683.812,79.445z     M 1697.593,58.581c 9.145,8.676, 20.082,16.156, 25.429,16.156c 4.11,0, 4.281-5.561, 3.044-11.093l-2.844-12.018l 0.469,0     c 7.58,13.596, 16.583,23.111, 21.163,23.111c 3.47,0, 6.955-1.579, 8.533-4.295c 1.266-2.062, 0.811-5.205-0.469-7.282    c-1.764-2.816-3.172-4.096-4.75-5.177c-1.564-1.124-3.172-1.266-4.75,0.142c-1.564,1.252-3.641,1.906-5.049,1.906    c-1.564,0-3.94-0.469-7.41-5.205c-3.812-4.921-6.485-10.126-8.533-16.597c-3.172-15.019-5.205-25.899-5.547-31.303l-0.171,0     l-16.882-4.551c 1.877,8.533, 3.783,16.882, 5.518,25.572l 5.205,25.429c 1.266,6.514, 1.408,8.718, 0.299,8.718c-1.408,0-7.58-4.11-11.221-7.438    L 1697.593,58.581z M 1820.388,51.954c0-14.080-6.187-29.568-16.782-38.869c-6.784-6.187-17.508-10.752-25.429-10.752    c-16.91,0-22.286,13.127-22.286,24.647c0,21.163, 11.392,35.228, 22.628,41.842c 6.926,4.11, 14.535,5.874, 19.74,5.874    C 1812.309,74.724, 1820.388,65.052, 1820.388,51.954z M 1788.146,66.944c-4.892-2.062-15.175-14.066-15.175-37.931    c0-12.16, 4.11-19.883, 11.392-19.883c 1.564,0, 2.66,0.299, 3.783,0.612c 6.016,2.062, 15.502,19.883, 15.204,40.789    c0,11.705-4.139,17.351-10.453,17.351C 1791.161,67.897, 1789.568,67.584, 1788.146,66.944z M 1832.718,58.581    c 9.287,8.676, 21.163,16.156, 27.008,16.156c 3.812,0, 5.376-3.954, 3.641-11.876l-8.22-36.494c-1.408-7.723-1.735-12.174, 1.564-12.174    c 2.844,0, 8.22,4.935, 13.767,11.378c 5.547,6.329, 11.193,14.080, 14.037,19.755c 0.967,3.47, 3.968,16.412, 5.376,25.116l 14.564,4.295l 1.877,0     c-3.94-18.204-7.922-36.366-11.548-54.514c-0.782-4.124-1.067-5.532,0-5.532c 1.294,0, 6.983,3.285, 11.065,6.613l 2.233-3.94    c-8.69-8.192-22.457-14.99-25.301-14.99c-4.892,0-6.158,4.892-4.281,13.568l 3.499,15.801l-0.469,0 c-7.922-11.861-18.005-21.006-24.974-25.287    c-3.826-2.375-8.050-4.096-11.89-4.096c-3.271,0-9.785,2.176-5.845,20.039l 6.983,31.758c 1.237,5.703, 1.707,7.751, 0.299,7.751    c-1.436,0-7.41-3.627-11.392-7.31L 1832.718,58.581z M 1950.891,72.476c 4.58,1.436, 9.785,2.233, 13.596,2.233    c 17.707,0, 25.131-8.391, 25.131-21.376c0-9.927-4.608-22.258-14.265-32.996c-7.723-8.548-18.788-15.502-30.308-17.991    c-2.517,0-5.205,0.299-8.22,1.394l-3.94-20.693c-1.408-7.566-1.095-9.33, 4.281-9.785l 8.050-0.811l0-4.096 l-41.244-1.906l0,4.281     c 10.297,1.564, 11.691,2.844, 13.113,10.283l 16.441,81.38c-4.409-0.939-8.533-2.219-12.772-3.812l-0.967,4.437    c 5.518,2.987, 10.596,4.409, 15.474,6.286l 1.564,6.514c 3.968,3.783, 9.984,7.908, 15.204,10.283l 1.735-1.081L 1950.891,72.476z     M 1939.058,13.696c 1.436-2.062, 4.281-4.096, 8.69-4.096c 10.396,0, 24.334,19.74, 24.334,40.448c0,12.971-7.723,16.597-14.407,16.597    c-2.816,0-5.177-0.313-8.22-1.109L 1939.058,13.696zM 277.66,380.814L 277.66,407.253 c0,0, 7.040,74.752-132.508,74.752C 15.829,482.005, 9.5,407.253, 9.5,407.253l0-133.291    c0,0, 10.965-74.027, 135.637-74.027c 106.027,0, 132.508,53.006, 132.508,53.006L 277.646,347.89 l-132.508,0 l0-35.655 l 62.35,0 l0-59.307 c0,0-3.129-17.166-62.35-17.166   c-69.447,0-65.422,38.172-65.422,38.172L 79.73,407.253 c0,0-4.025,40.491, 65.422,40.491c 67.74,0, 62.35-40.491, 62.35-40.491l0-26.439 L 277.66,380.814 zM 522.425,388.324l0-179.812 l 56.448,0 L 578.873,347.577 c0,0,0,23.097, 46.052,23.097c 46.393,0, 46.393-22.784, 46.393-22.784l0-139.435 l 56.462,0    L 727.78,353.877 c0,0-2.375,47.474-102.855,47.474c-34.46,0-57.287-5.518-72.491-12.857l 0.327,0.028L 522.425,388.324zM 971.364,388.324l0-179.812 l 56.462,0 L 1027.84,347.577 c0,0,0,23.097, 46.009,23.097c 46.279,0, 46.279-22.784, 46.279-22.784l0-139.435 l 56.576,0    L 1176.704,353.877 c0,0-2.375,47.474-102.855,47.474c-34.446,0-57.33-5.518-72.391-12.857l 0.228,0.014L 971.364,388.324zM 1542.528,286.009L 1393.678,286.009 c0,0-0.441-33.266-0.114-33.294c 0.284-0.028, 0.114-22.784, 46.123-22.784   c 46.279,0, 46.507,22.869, 46.507,22.869l-0.228,14.905l 56.548,0 l0-14.763 c0,0, 4.395-53.006-102.827-53.006s-102.528,53.006-102.528,53.006L 1337.159,345.244    c0,0-4.196,53.035, 102.528,53.035c 107.492,0, 102.827-53.447, 102.827-53.447L 1542.528,286.009 z M 1393.65,344.135l 0.028-20.708l 92.302,0    c0,0, 0.299,20.807, 0.299,20.708c0,0, 0.028,23.367-46.62,23.367C 1393.678,367.502, 1393.65,344.135, 1393.65,344.135zM 1767.836,320.071L 1767.836,344.86 c0,0, 4.636,53.447-102.855,53.447c-106.823,0-102.585-53.035-102.585-53.035l0-92.345    c0,0-4.58-52.992, 102.585-52.992c 107.221,0, 102.855,52.992, 102.855,52.992l0,22.983 l-56.434,0 l 0.028-23.125c0,0-0.028-22.869-46.45-22.869   c-45.98,0-45.838,23.012-46.094,23.012c-0.327,0.028, 0.114,91.207, 0.114,91.207c 0.142,0, 0.782,23.367, 48.412,23.367   c 44.743,0, 43.989-23.026, 43.989-23.026l0-24.348 L 1767.836,320.071zM 1189.618,391.467l 17.877,0 L 1207.495,434.759 l 56.576,0 l0-43.307 l 61.924,0 L 1326.009,361.116 l-61.924,0 l0-110.677 c0,0, 3.086-27.989, 59.221-20.309   c0,0, 0.199-27.463,0-27.577c-48.74-6.258-115.797-1.152-115.797,47.886c0,49.138,0,110.677,0,110.677l-17.877,0 L 1189.618,391.467 L 1189.618,391.467zM 1790.009,479.63c0,0, 56.519-0.498, 56.519,0.057c0,0.441-0.256-82.603,0-82.603   c 12.558,2.66, 27.406,4.267, 45.952,4.267c 100.594,0, 103.353-47.474, 103.353-47.474l0-145.408 l-57.017,0 L 1938.83,347.89 c0,0,0,22.784-46.336,22.784   c-45.952,0-45.952-23.097-45.952-23.097l0-139.065 l-56.519,0 L 1790.009,479.63 L 1790.009,479.63zM 952.292,286.009l-148.864,0 c0,0-0.327-33.266-0.128-33.294c 0.284-0.028, 0.128-22.784, 46.108-22.784   c 46.393,0, 46.492,22.869, 46.492,22.869l-0.1,14.905l 56.476,0 l0-14.763 c0,0, 4.309-53.006-102.869-53.006c-107.122,0-102.514,53.006-102.514,53.006L 746.894,345.244    c0,0-4.281,53.035, 102.514,53.035c 107.605,0, 102.869-53.447, 102.869-53.447L 952.292,286.009 z M 803.385,344.135l 0.043-20.708l 92.388,0    c0,0, 0.185,20.807, 0.185,20.708c0,0, 0.043,23.367-46.578,23.367C 803.428,367.502, 803.385,344.135, 803.385,344.135zM 503.339,286.009L 354.418,286.009 c0,0-0.341-33.266-0.114-33.294c 0.171-0.028, 0.114-22.784, 46.137-22.784   c 46.322,0, 46.407,22.869, 46.407,22.869l-0.085,14.905l 56.562,0 l0-14.763 c0,0, 4.252-53.006-102.884-53.006c-107.264,0-102.528,53.006-102.528,53.006L 297.913,345.244    c0,0-4.267,53.035, 102.528,53.035c 107.548,0, 102.884-53.447, 102.884-53.447L 503.339,286.009 z M 354.347,344.135l 0.085-20.708l 92.345,0 c0,0, 0.156,20.807, 0.156,20.708   c0,0, 0.1,23.367-46.478,23.367C 354.418,367.502, 354.347,344.135, 354.347,344.135z" horiz-adv-x="2005.333" data-tags="Genentech_Roche_Tag_KO" />
<glyph unicode="&#x20;" horiz-adv-x="256" />
<glyph class="hidden" unicode="&#xf000;" d="M0,480L 512 -32L0 -32 z" horiz-adv-x="0" />
</font>
</defs>
</svg>
